#!OML:ASF F:\VICON\USERDATA\INSTALL\rory3\rory3.ASF
:FULLY-SPECIFIED
:DEGREES
71
root 0.8718383717004062 17.830727765579635 31.76349781017727 -3.768908449555979 -0.36635072247354766 0.5134055755011535
lfemur -0.7500443395744139 -3.6508291501726187 -25.989412034076125
ltibia 23.223849980022358
lfoot -17.315352424168914 3.010490048815278
ltoes 2.922622927645433
rfemur -28.16632494060043 -3.2596630475582415 22.288749715874985
rtibia 64.32380841585716
rfoot -6.390390816203379 -8.758008903100128
rtoes 6.248597722247385
lowerback 11.963534177840877 -0.10702474734430242 -2.0613685819637055
upperback 0.3833662082167315 -0.1511971741384246 1.061919497680026
thorax -6.245773379105161 -0.003865689601189437 2.508120880003231
lowerneck -16.68839537409338 -3.313498853813706 -2.8284713133582824
upperneck 20.413026061977654 -4.576460222859135 3.172257340650427
head 9.226205843442703 -1.9996543563602032 0.8962064968978438
lclavicle 2.991114033373369e-16 5.5314561542811934e-17
lhumerus -29.548082349394324 2.8185020551944717 80.73603409045829
lradius 24.43438695410686
lwrist 8.73221059522151
lhand -30.07124882330229 16.957548338070655
lfingers 7.125020000000001
lthumb -3.3405621227236724 46.99310946477698
rclavicle 2.9911140322276367e-16 5.531456146108353e-17
rhumerus -30.65599309068617 -19.05599899054185 -77.99448034754532
rradius 30.336113399838684
rwrist 0.7921110777897007
rhand -18.22717731125118 22.535644637872988
rfingers 7.125020000000001
rthumb 7.873753583165715 -7.754886060895071
72
root 0.8321627620514996 17.827569149514925 31.7683119297329 -3.435353323542246 0.31982946540417134 0.5685538979468885
lfemur 1.4482912935298318 -4.0511345992337535 -26.31398492466159
ltibia 22.33865362603038
lfoot -17.551014607106673 2.873950918695945
ltoes 1.2160984547110196
rfemur -28.860211403902685 -2.0806289373708076 21.923502152624042
rtibia 53.3809770140799
rfoot -6.932520503623829 -9.411156211918714
rtoes 4.143870260620122
lowerback 11.97622278841746 -0.4162717321174668 -2.4137584184372782
upperback 0.40354046196013554 -0.606837999701012 1.191506791004017
thorax -6.219594830507597 -0.21711002752954597 3.006928209618951
lowerneck -16.81426072944547 -3.3004344816360125 -2.8768121126981923
upperneck 20.168258635176606 -4.496085446771616 3.1308870983280435
head 9.149074239071835 -1.974444543101148 0.8893253986855247
lclavicle 2.9911140334221397e-16 5.531456154646313e-17
lhumerus -27.74010154324681 0.8296064421363969 81.02277151212766
lradius 25.975026383825035
lwrist 9.36548422183786
lhand -29.796750982735908 17.301973104861545
lfingers 7.125020000000001
lthumb -3.101823827834251 47.339192032153065
rclavicle 2.9911140322215437e-16 5.5314561460701e-17
rhumerus -31.023352853419095 -18.799009323032635 -77.91253705469272
rradius 30.455672022619982
rwrist 0.49166218502959547
rhand -18.278920459111326 22.368000196973558
rfingers 7.125020000000001
rthumb 7.758986416580511 -7.992623421609416
73
root 0.7879600107490754 17.814388233165477 32.035947684447386 -3.002858994359538 0.9438976321108071 0.6879043031748453
lfemur 3.9285072220516204 -3.825568644777669 -26.342202104459332
ltibia 20.647027988252603
lfoot -16.876554159139975 2.375664790746571
ltoes -1.6762119516239338
rfemur -28.82197223724562 -0.3962426216666697 21.208347746078534
rtibia 40.309337593049364
rfoot -6.659946379505886 -10.565620331537401
rtoes 3.391019362946338
lowerback 11.842620466177033 -0.6596375032222231 -2.7162343284944424
upperback 0.42466640842757825 -0.9427395207319254 1.3097744258036168
thorax -6.10815873315102 -0.3800041298216136 3.386185299790487
lowerneck -16.893550055361782 -3.2819512742117816 -2.898378423485922
upperneck 19.997165750984017 -4.454295231748922 3.1819074284260838
head 9.101482095803354 -1.960920304560654 0.9184813479788845
lclavicle 2.9911140335503986e-16 5.531456155562574e-17
lhumerus -26.048775088871356 -0.5962102154074107 81.05328675092775
lradius 27.535197175533852
lwrist 9.938174671697642
lhand -28.944362535185274 20.035464128670938
lfingers 7.125020000000001
lthumb -2.5628775084305557 49.266723898150126
rclavicle 2.9911140321726156e-16 5.531456145701736e-17
rhumerus -31.324821282577773 -18.90210633470661 -77.74210367585724
rradius 30.315986383992218
rwrist 0.5589806659154721
rhand -18.22640947466633 22.52911547566512
rfingers 7.125020000000001
rthumb 7.738738085650739 -7.920419300965253
74
root 0.7379958437769769 17.78938548293254 32.30410403201289 -2.5386747189247316 1.4056819937251146 0.6834512275942997
lfemur 6.8324041767356745 -3.249969247432187 -26.089081589869334
ltibia 18.19810902124049
lfoot -15.900148509175672 1.627589014244168
ltoes -4.4916420795657945
rfemur -28.039187276146762 1.9683975688652526 20.334545549089036
rtibia 27.050426958907657
rfoot -7.405465651958832 -12.540387770465223
rtoes 2.9298347967418716
lowerback 11.494385535121463 -0.8926255723296137 -2.946817168218745
upperback 0.44212379767874416 -1.3238150717897774 1.4064271978290592
thorax -5.898543610917357 -0.5433186071525066 3.621476764652381
lowerneck -16.99490064615249 -3.2602620923917174 -2.895248872223465
upperneck 19.89138199301003 -4.399656479463293 3.168495268813449
head 9.066116311823375 -1.9398513978530827 0.9143858782395509
lclavicle 2.9911140335985113e-16 5.5314561558824115e-17
lhumerus -24.58311903910039 -1.6526623275709578 80.97583835654628
lradius 28.964505843308437
lwrist 10.417875486915918
lhand -28.558933903829868 22.21007711805294
lfingers 7.125020000000001
lthumb -2.206481181919617 51.372474004958455
rclavicle 2.991114032145711e-16 5.5314561454878915e-17
rhumerus -31.928192223345683 -19.36305869884035 -77.43558801804969
rradius 30.147572042195257
rwrist 0.7434944487019912
rhand -18.167826018397562 22.760062042918758
rfingers 7.125020000000001
rthumb 7.844239012807796 -7.635193236619716
75
root 0.6785581639663409 17.74615936894637 33.42144881419394 -2.112404879902498 1.742720804379006 0.8163358252075636
lfemur 10.037068315065987 -2.726934434813368 -25.875335995731863
ltibia 15.962792355450599
lfoot -15.324147557858169 0.38648418798044615
ltoes -7.429606661610758
rfemur -27.269417816930655 4.374215190218255 19.118398170101692
rtibia 18.135443006597075
rfoot -10.050329028365221 -14.88203410647132
rtoes 1.04492361469885
lowerback 11.156366612326206 -1.0780981701907428 -3.466989636002422
upperback 0.424638133739442 -1.6511796690458207 1.471704620807571
thorax -5.733859058224981 -0.6804305445248755 4.154297337675599
lowerneck -17.04870050587995 -3.212096916078505 -2.8473845060089795
upperneck 19.861373590159364 -4.317961600252051 3.1164164041352613
head 9.057701440731815 -1.908054963905088 0.8982173914711422
lclavicle 2.991114033641315e-16 5.5314561561148445e-17
lhumerus -23.243632209358662 -2.4588133006652177 80.85552049780252
lradius 30.349375558179723
lwrist 11.042973236709564
lhand -29.40533896172889 20.465510301259656
lfingers 7.125020000000001
lthumb -2.831092421279863 50.06135567952024
rclavicle 2.991114032129125e-16 5.5314561452981914e-17
rhumerus -32.27010295914679 -19.75859626357009 -77.02604050181681
rradius 29.740019541942516
rwrist 1.2160536865864637
rhand -18.17116596583253 22.920987021569857
rfingers 7.125020000000001
rthumb 7.885604125325119 -7.422940903339916
